<?xml version="1.0" encoding="iso-8859-1"?>
<!-- Generator: Adobe Illustrator 18.1.1, SVG Export Plug-In . SVG Version: 6.00 Build 0)  -->
<svg version="1.1" id="Capa_1" xmlns="http://www.w3.org/2000/svg" xmlns:xlink="http://www.w3.org/1999/xlink" x="0px" y="0px"
	 viewBox="0 0 492 492" style="enable-background:new 0 0 492 492;" xml:space="preserve">
<g>
	<g>
		<path style="fill:#010002;" d="M356.091,0c-11.666,0-21.666,4.167-30,12.5c-8.332,8.333-12.5,18.333-12.5,30s4.168,21.667,12.5,30
			c8.333,8.333,18.333,12.5,30,12.5c11.668,0,21.5-4.167,29.5-12.5s12-18.333,12-30s-4-21.667-12-30S367.759,0,356.091,0z"/>
		<path style="fill:#010002;" d="M39.09,292.5c-4.333-7-10-8.333-17-4c-7,4.334-8.5,10.167-4.5,17.5c4.667,6.667,10.667,8,18,4
			C42.257,305.333,43.423,299.5,39.09,292.5z"/>
		<path style="fill:#010002;" d="M47.09,327.5c-4.333-7-10-8.333-17-4s-8.333,10-4,17s10,8.333,17,4S51.423,334.5,47.09,327.5z"/>
		<path style="fill:#010002;" d="M56.59,362c-4.667-7.333-10.667-8.667-18-4c-6.667,4-7.833,9.667-3.5,17s10,8.667,17,4
			S60.59,368.667,56.59,362z"/>
		<path style="fill:#010002;" d="M65.09,396.5c-4.333-7-10.167-8.5-17.5-4.5c-6.667,4.667-7.833,10.5-3.5,17.5s9.833,8.5,16.5,4.5
			C67.923,409.333,69.423,403.5,65.09,396.5z"/>
		<path style="fill:#010002;" d="M266.59,467c-8,2.667-10.832,7.833-8.5,15.5c2.334,7.667,7.5,10.333,15.5,8s10.668-7.5,8-15.5
			C278.924,467,273.924,464.333,266.59,467z"/>
		<path style="fill:#010002;" d="M301.09,467c-7.666,2.667-10.166,8-7.5,16c2.668,8,7.834,10.667,15.5,8
			c7.668-2.667,10.168-8,7.5-16S308.756,464.333,301.09,467z"/>
		<path style="fill:#010002;" d="M336.591,467c-8,2.667-10.667,8-8,16c2.668,8,8,10.667,16,8s10.668-8,8-16
			C349.925,467,344.591,464.333,336.591,467z"/>
		<path style="fill:#010002;" d="M372.091,467.5c-7.674,2.333-10.342,7.5-8,15.5c2.334,8,7.5,10.667,15.5,8s10.668-7.833,8-15.5
			C384.921,467.833,379.755,465.167,372.091,467.5z"/>
		<path style="fill:#010002;" d="M456.591,164h-73l-37-59c-6.668-14.667-18.334-22.333-35-23c-2-0.667-4.666-0.333-8,1l-184,43
			c-6,1.333-10.5,4.5-13.5,9.5s-3.833,10.333-2.5,16s4.333,10,9,13s10,3.833,16,2.5l123-22l-94,162h-68h-32l22,81
			c0.667,1.333,1.167,1.833,1.5,1.5l0.5-0.5c3.333,5.333,8.333,6,15,2c2.667-1.333,4.333-4,5-8l13-41l1-2h61
			c14,0,23.667-4.667,29-14l29-48l63,65l-27,108h92c3.334,0,6-1.333,8-4s3-5.333,3-8c0-4.667-2-8.333-6-11l-40-23l19-76
			c3.334-11.333,0-21.667-10-31l-52-53c18.668-30,33.668-55,45-75l24,35h16h86c6,0,11-2,15-6s6-8.833,6-14.5s-2-10.5-6-14.5
			S461.926,164,456.591,164z"/>
	</g>
</g>
<g>
</g>
<g>
</g>
<g>
</g>
<g>
</g>
<g>
</g>
<g>
</g>
<g>
</g>
<g>
</g>
<g>
</g>
<g>
</g>
<g>
</g>
<g>
</g>
<g>
</g>
<g>
</g>
<g>
</g>
</svg>
