<svg id="Capa_1" enable-background="new 0 0 510 510" height="512" viewBox="0 0 510 510" width="512" xmlns="http://www.w3.org/2000/svg"><g><path d="m60 60h90v30h-90z"/><path d="m360 60h90v30h-90z"/><g><path d="m258.925 224.695h60.001v30.001h-60.001z" transform="matrix(.968 -.25 .25 .968 -50.78 79.908)"/><path d="m58.517 120c-32.267 0-58.517 26.25-58.517 58.517v242.967c0 32.266 26.25 58.516 58.517 58.516h31.483v-360z"/><path d="m390 120h-57.968l-14.062-63.274c-3.494-15.736-17.195-26.726-33.314-26.726h-59.312c-16.119 0-29.819 10.99-33.314 26.725l-14.062 63.275h-57.968v360h270zm-54.242 61.115 22.519 87.137-116.185 30.023-22.517-87.137zm-114.444-117.884c.423-1.902 2.08-3.231 4.029-3.231h59.312c1.949 0 3.606 1.329 4.029 3.232l12.617 56.768h-92.602zm-21.314 356.769c-27.57 0-50-22.43-50-50s22.43-50 50-50 50 22.43 50 50-22.43 50-50 50z"/><circle cx="200" cy="370" r="20"/><path d="m451.483 120h-31.483v360h31.483c32.267 0 58.517-26.25 58.517-58.517v-242.966c0-32.267-26.25-58.517-58.517-58.517z"/></g></g></svg>