<svg id="Capa_1" enable-background="new 0 0 508.199 508.199" height="512" viewBox="0 0 508.199 508.199" width="512" xmlns="http://www.w3.org/2000/svg">
  <g>
    <path d="m405.331 0c-19.498 10.026-86.742 44.602-112.055 57.617l94.199 183.201c142.861-73.458 105.768-54.385 112.055-57.617-138.186-268.746-78.783-153.219-94.199-183.201z"/>
    <path d="m335.331 373.199h-57v-76.47c22-7.43 34.98-29.53 31.41-51.93 4.41-2.28-1.73.91 37.3-19.18-60.345-117.08-44.902-87.116-64.92-125.96-8.424 5.055 45.957-23.937-180.54 92.5l10.98 21.34-65.81 33.85-11.43-22.24-26.68 13.72c4.23 8.24 61.72 120.05 65.85 128.06l26.67-13.71-11.43-22.24 65.81-33.83 10.98 21.34c108.618-55.872 40.34-20.65 63.82-32.81 5.02 4.95 11.16 8.78 17.99 11.09v76.47h-57c-5.68 0-10.88 3.21-13.42 8.29l-63.35 126.71h33.54l52.5-105h47.73v105h30v-105h47.73l52.5 105h33.54l-63.35-126.71c-2.54-5.08-7.74-8.29-13.42-8.29z"/>
  </g>
</svg>
